<mxfile host="app.diagrams.net" modified="2024-04-06T02:44:34.670Z" agent="Mozilla/5.0 (Windows NT 10.0; Win64; x64) AppleWebKit/537.36 (KHTML, like Gecko) Chrome/123.0.0.0 Safari/537.36" version="24.1.0" etag="1M_euIt-S_CLRgaLL1Mn" type="github">
  <diagram name="Page-1" id="_10pndpndqO9Rgd-7_nZ">
    <mxGraphModel>
      <root>
        <mxCell id="0" />
        <mxCell id="1" parent="0" />
      </root>
    </mxGraphModel>
  </diagram>
</mxfile>
